<svg xmlns="http://www.w3.org/2000/svg" width="720" height="400" viewBox="0 0 720 400" font-family="ui-sans-serif,Segoe UI,Helvetica,Arial,sans-serif">
<rect width="720" height="400" rx="12" fill="#000000"/>
<text x="58" y="34" fill="#F5F4F5" font-size="20" font-weight="700">Downloads</text>
<text x="694" y="34" fill="#22D3EE" font-size="20" font-weight="700" text-anchor="end">↓ 101</text>
<text x="58" y="386" fill="#8A8394" font-size="12">0nigiris/JII</text>
<line x1="58" y1="354.0" x2="694" y2="354.0" stroke="#FFFFFF14" stroke-width="1"/>
<text x="50" y="358.0" fill="#8A8394" font-size="11" text-anchor="end">0</text>
<line x1="58" y1="255.3" x2="694" y2="255.3" stroke="#FFFFFF14" stroke-width="1"/>
<text x="50" y="259.3" fill="#8A8394" font-size="11" text-anchor="end">50</text>
<line x1="58" y1="156.7" x2="694" y2="156.7" stroke="#FFFFFF14" stroke-width="1"/>
<text x="50" y="160.7" fill="#8A8394" font-size="11" text-anchor="end">100</text>
<line x1="58" y1="58.0" x2="694" y2="58.0" stroke="#FFFFFF14" stroke-width="1"/>
<text x="50" y="62.0" fill="#8A8394" font-size="11" text-anchor="end">150</text>
<text x="58.0" y="374.0" fill="#8A8394" font-size="11" text-anchor="start">Jul 9, 2026</text>
<text x="217.0" y="374.0" fill="#8A8394" font-size="11" text-anchor="middle">Jul 23, 2026</text>
<text x="376.0" y="374.0" fill="#8A8394" font-size="11" text-anchor="middle">Aug 6, 2026</text>
<text x="535.0" y="374.0" fill="#8A8394" font-size="11" text-anchor="middle">Aug 20, 2026</text>
<text x="694.0" y="374.0" fill="#8A8394" font-size="11" text-anchor="end">Sep 3, 2026</text>
<polygon points="58.0,354.0 58.0,352.0 59.5,348.1 60.1,348.1 60.2,338.2 67.3,330.3 70.8,267.2 101.4,259.3 107.6,255.3 130.3,251.4 147.6,243.5 233.3,217.8 461.8,217.8 478.7,217.8 479.5,213.9 483.4,196.1 483.5,188.2 483.5,184.3 483.8,176.4 516.2,174.4 516.8,174.4 550.7,166.5 551.4,162.6 581.8,154.7 694.0,154.7 694.0,354.0" fill="#22D3EE" fill-opacity="0.08"/>
<polyline points="58.0,352.0 59.5,348.1 60.1,348.1 60.2,338.2 67.3,330.3 70.8,267.2 101.4,259.3 107.6,255.3 130.3,251.4 147.6,243.5 233.3,217.8 461.8,217.8 478.7,217.8 479.5,213.9 483.4,196.1 483.5,188.2 483.5,184.3 483.8,176.4 516.2,174.4 516.8,174.4 550.7,166.5 551.4,162.6 581.8,154.7 694.0,154.7" fill="none" stroke="#22D3EE" stroke-width="3" stroke-linejoin="round" stroke-linecap="round"/>
<circle cx="58.0" cy="352.0" r="3.5" fill="#000000" stroke="#22D3EE" stroke-width="2"/>
<circle cx="59.5" cy="348.1" r="3.5" fill="#000000" stroke="#22D3EE" stroke-width="2"/>
<circle cx="60.1" cy="348.1" r="3.5" fill="#000000" stroke="#22D3EE" stroke-width="2"/>
<circle cx="60.2" cy="338.2" r="3.5" fill="#000000" stroke="#22D3EE" stroke-width="2"/>
<circle cx="67.3" cy="330.3" r="3.5" fill="#000000" stroke="#22D3EE" stroke-width="2"/>
<circle cx="70.8" cy="267.2" r="3.5" fill="#000000" stroke="#22D3EE" stroke-width="2"/>
<circle cx="101.4" cy="259.3" r="3.5" fill="#000000" stroke="#22D3EE" stroke-width="2"/>
<circle cx="107.6" cy="255.3" r="3.5" fill="#000000" stroke="#22D3EE" stroke-width="2"/>
<circle cx="130.3" cy="251.4" r="3.5" fill="#000000" stroke="#22D3EE" stroke-width="2"/>
<circle cx="147.6" cy="243.5" r="3.5" fill="#000000" stroke="#22D3EE" stroke-width="2"/>
<circle cx="233.3" cy="217.8" r="3.5" fill="#000000" stroke="#22D3EE" stroke-width="2"/>
<circle cx="461.8" cy="217.8" r="3.5" fill="#000000" stroke="#22D3EE" stroke-width="2"/>
<circle cx="478.7" cy="217.8" r="3.5" fill="#000000" stroke="#22D3EE" stroke-width="2"/>
<circle cx="479.5" cy="213.9" r="3.5" fill="#000000" stroke="#22D3EE" stroke-width="2"/>
<circle cx="483.4" cy="196.1" r="3.5" fill="#000000" stroke="#22D3EE" stroke-width="2"/>
<circle cx="483.5" cy="188.2" r="3.5" fill="#000000" stroke="#22D3EE" stroke-width="2"/>
<circle cx="483.5" cy="184.3" r="3.5" fill="#000000" stroke="#22D3EE" stroke-width="2"/>
<circle cx="483.8" cy="176.4" r="3.5" fill="#000000" stroke="#22D3EE" stroke-width="2"/>
<circle cx="516.2" cy="174.4" r="3.5" fill="#000000" stroke="#22D3EE" stroke-width="2"/>
<circle cx="516.8" cy="174.4" r="3.5" fill="#000000" stroke="#22D3EE" stroke-width="2"/>
<circle cx="550.7" cy="166.5" r="3.5" fill="#000000" stroke="#22D3EE" stroke-width="2"/>
<circle cx="551.4" cy="162.6" r="3.5" fill="#000000" stroke="#22D3EE" stroke-width="2"/>
<circle cx="581.8" cy="154.7" r="3.5" fill="#000000" stroke="#22D3EE" stroke-width="2"/>
</svg>
