<svg xmlns="http://www.w3.org/2000/svg" width="720" height="400" viewBox="0 0 720 400" font-family="ui-sans-serif,Segoe UI,Helvetica,Arial,sans-serif">
<rect width="720" height="400" rx="12" fill="#000000"/>
<text x="58" y="34" fill="#F5F4F5" font-size="20" font-weight="700">Downloads</text>
<text x="694" y="34" fill="#22D3EE" font-size="20" font-weight="700" text-anchor="end">↓ 88</text>
<text x="58" y="386" fill="#8A8394" font-size="12">0nigiris/JII</text>
<line x1="58" y1="354.0" x2="694" y2="354.0" stroke="#FFFFFF14" stroke-width="1"/>
<text x="50" y="358.0" fill="#8A8394" font-size="11" text-anchor="end">0</text>
<line x1="58" y1="280.0" x2="694" y2="280.0" stroke="#FFFFFF14" stroke-width="1"/>
<text x="50" y="284.0" fill="#8A8394" font-size="11" text-anchor="end">25</text>
<line x1="58" y1="206.0" x2="694" y2="206.0" stroke="#FFFFFF14" stroke-width="1"/>
<text x="50" y="210.0" fill="#8A8394" font-size="11" text-anchor="end">50</text>
<line x1="58" y1="132.0" x2="694" y2="132.0" stroke="#FFFFFF14" stroke-width="1"/>
<text x="50" y="136.0" fill="#8A8394" font-size="11" text-anchor="end">75</text>
<line x1="58" y1="58.0" x2="694" y2="58.0" stroke="#FFFFFF14" stroke-width="1"/>
<text x="50" y="62.0" fill="#8A8394" font-size="11" text-anchor="end">100</text>
<text x="58.0" y="374.0" fill="#8A8394" font-size="11" text-anchor="start">Jul 9, 2026</text>
<text x="217.0" y="374.0" fill="#8A8394" font-size="11" text-anchor="middle">Jul 19, 2026</text>
<text x="376.0" y="374.0" fill="#8A8394" font-size="11" text-anchor="middle">Jul 28, 2026</text>
<text x="535.0" y="374.0" fill="#8A8394" font-size="11" text-anchor="middle">Aug 7, 2026</text>
<text x="694.0" y="374.0" fill="#8A8394" font-size="11" text-anchor="end">Aug 17, 2026</text>
<polygon points="58.0,354.0 58.0,351.0 60.1,345.1 61.0,345.1 61.2,330.3 71.5,318.5 76.5,223.8 120.7,211.9 129.6,206.0 162.4,200.1 187.3,188.2 311.1,149.8 641.1,149.8 665.5,149.8 666.7,143.8 672.4,120.2 672.5,111.3 672.5,105.4 672.9,93.5 694.0,93.5 694.0,354.0" fill="#22D3EE" fill-opacity="0.08"/>
<polyline points="58.0,351.0 60.1,345.1 61.0,345.1 61.2,330.3 71.5,318.5 76.5,223.8 120.7,211.9 129.6,206.0 162.4,200.1 187.3,188.2 311.1,149.8 641.1,149.8 665.5,149.8 666.7,143.8 672.4,120.2 672.5,111.3 672.5,105.4 672.9,93.5 694.0,93.5" fill="none" stroke="#22D3EE" stroke-width="3" stroke-linejoin="round" stroke-linecap="round"/>
<circle cx="58.0" cy="351.0" r="3.5" fill="#000000" stroke="#22D3EE" stroke-width="2"/>
<circle cx="60.1" cy="345.1" r="3.5" fill="#000000" stroke="#22D3EE" stroke-width="2"/>
<circle cx="61.0" cy="345.1" r="3.5" fill="#000000" stroke="#22D3EE" stroke-width="2"/>
<circle cx="61.2" cy="330.3" r="3.5" fill="#000000" stroke="#22D3EE" stroke-width="2"/>
<circle cx="71.5" cy="318.5" r="3.5" fill="#000000" stroke="#22D3EE" stroke-width="2"/>
<circle cx="76.5" cy="223.8" r="3.5" fill="#000000" stroke="#22D3EE" stroke-width="2"/>
<circle cx="120.7" cy="211.9" r="3.5" fill="#000000" stroke="#22D3EE" stroke-width="2"/>
<circle cx="129.6" cy="206.0" r="3.5" fill="#000000" stroke="#22D3EE" stroke-width="2"/>
<circle cx="162.4" cy="200.1" r="3.5" fill="#000000" stroke="#22D3EE" stroke-width="2"/>
<circle cx="187.3" cy="188.2" r="3.5" fill="#000000" stroke="#22D3EE" stroke-width="2"/>
<circle cx="311.1" cy="149.8" r="3.5" fill="#000000" stroke="#22D3EE" stroke-width="2"/>
<circle cx="641.1" cy="149.8" r="3.5" fill="#000000" stroke="#22D3EE" stroke-width="2"/>
<circle cx="665.5" cy="149.8" r="3.5" fill="#000000" stroke="#22D3EE" stroke-width="2"/>
<circle cx="666.7" cy="143.8" r="3.5" fill="#000000" stroke="#22D3EE" stroke-width="2"/>
<circle cx="672.4" cy="120.2" r="3.5" fill="#000000" stroke="#22D3EE" stroke-width="2"/>
<circle cx="672.5" cy="111.3" r="3.5" fill="#000000" stroke="#22D3EE" stroke-width="2"/>
<circle cx="672.5" cy="105.4" r="3.5" fill="#000000" stroke="#22D3EE" stroke-width="2"/>
<circle cx="672.9" cy="93.5" r="3.5" fill="#000000" stroke="#22D3EE" stroke-width="2"/>
</svg>
