<svg xmlns="http://www.w3.org/2000/svg" width="720" height="400" viewBox="0 0 720 400" font-family="ui-sans-serif,Segoe UI,Helvetica,Arial,sans-serif">
<rect width="720" height="400" rx="12" fill="#000000"/>
<text x="58" y="34" fill="#F5F4F5" font-size="20" font-weight="700">Downloads</text>
<text x="694" y="34" fill="#22D3EE" font-size="20" font-weight="700" text-anchor="end">↓ 173</text>
<text x="58" y="386" fill="#8A8394" font-size="12">0nigiris/JII</text>
<line x1="58" y1="354.0" x2="694" y2="354.0" stroke="#FFFFFF14" stroke-width="1"/>
<text x="50" y="358.0" fill="#8A8394" font-size="11" text-anchor="end">0</text>
<line x1="58" y1="280.0" x2="694" y2="280.0" stroke="#FFFFFF14" stroke-width="1"/>
<text x="50" y="284.0" fill="#8A8394" font-size="11" text-anchor="end">50</text>
<line x1="58" y1="206.0" x2="694" y2="206.0" stroke="#FFFFFF14" stroke-width="1"/>
<text x="50" y="210.0" fill="#8A8394" font-size="11" text-anchor="end">100</text>
<line x1="58" y1="132.0" x2="694" y2="132.0" stroke="#FFFFFF14" stroke-width="1"/>
<text x="50" y="136.0" fill="#8A8394" font-size="11" text-anchor="end">150</text>
<line x1="58" y1="58.0" x2="694" y2="58.0" stroke="#FFFFFF14" stroke-width="1"/>
<text x="50" y="62.0" fill="#8A8394" font-size="11" text-anchor="end">200</text>
<text x="58.0" y="374.0" fill="#8A8394" font-size="11" text-anchor="start">Jul 9, 2026</text>
<text x="217.0" y="374.0" fill="#8A8394" font-size="11" text-anchor="middle">Jul 29, 2026</text>
<text x="376.0" y="374.0" fill="#8A8394" font-size="11" text-anchor="middle">Aug 19, 2026</text>
<text x="535.0" y="374.0" fill="#8A8394" font-size="11" text-anchor="middle">Sep 8, 2026</text>
<text x="694.0" y="374.0" fill="#8A8394" font-size="11" text-anchor="end">Sep 28, 2026</text>
<polygon points="58.0,354.0 58.0,352.5 59.0,349.6 59.5,349.6 59.5,342.2 64.4,336.2 66.8,288.9 88.0,283.0 92.2,280.0 107.9,277.0 119.8,271.1 178.9,251.9 336.6,251.9 348.3,251.9 348.8,248.9 351.6,222.3 351.6,216.4 351.6,213.4 351.8,207.5 374.1,203.0 374.6,203.0 397.9,197.1 398.4,194.2 419.4,155.7 516.8,132.0 523.3,98.0 694.0,98.0 694.0,354.0" fill="#22D3EE" fill-opacity="0.08"/>
<polyline points="58.0,352.5 59.0,349.6 59.5,349.6 59.5,342.2 64.4,336.2 66.8,288.9 88.0,283.0 92.2,280.0 107.9,277.0 119.8,271.1 178.9,251.9 336.6,251.9 348.3,251.9 348.8,248.9 351.6,222.3 351.6,216.4 351.6,213.4 351.8,207.5 374.1,203.0 374.6,203.0 397.9,197.1 398.4,194.2 419.4,155.7 516.8,132.0 523.3,98.0 694.0,98.0" fill="none" stroke="#22D3EE" stroke-width="3" stroke-linejoin="round" stroke-linecap="round"/>
<circle cx="58.0" cy="352.5" r="3.5" fill="#000000" stroke="#22D3EE" stroke-width="2"/>
<circle cx="59.0" cy="349.6" r="3.5" fill="#000000" stroke="#22D3EE" stroke-width="2"/>
<circle cx="59.5" cy="349.6" r="3.5" fill="#000000" stroke="#22D3EE" stroke-width="2"/>
<circle cx="59.5" cy="342.2" r="3.5" fill="#000000" stroke="#22D3EE" stroke-width="2"/>
<circle cx="64.4" cy="336.2" r="3.5" fill="#000000" stroke="#22D3EE" stroke-width="2"/>
<circle cx="66.8" cy="288.9" r="3.5" fill="#000000" stroke="#22D3EE" stroke-width="2"/>
<circle cx="88.0" cy="283.0" r="3.5" fill="#000000" stroke="#22D3EE" stroke-width="2"/>
<circle cx="92.2" cy="280.0" r="3.5" fill="#000000" stroke="#22D3EE" stroke-width="2"/>
<circle cx="107.9" cy="277.0" r="3.5" fill="#000000" stroke="#22D3EE" stroke-width="2"/>
<circle cx="119.8" cy="271.1" r="3.5" fill="#000000" stroke="#22D3EE" stroke-width="2"/>
<circle cx="178.9" cy="251.9" r="3.5" fill="#000000" stroke="#22D3EE" stroke-width="2"/>
<circle cx="336.6" cy="251.9" r="3.5" fill="#000000" stroke="#22D3EE" stroke-width="2"/>
<circle cx="348.3" cy="251.9" r="3.5" fill="#000000" stroke="#22D3EE" stroke-width="2"/>
<circle cx="348.8" cy="248.9" r="3.5" fill="#000000" stroke="#22D3EE" stroke-width="2"/>
<circle cx="351.6" cy="222.3" r="3.5" fill="#000000" stroke="#22D3EE" stroke-width="2"/>
<circle cx="351.6" cy="216.4" r="3.5" fill="#000000" stroke="#22D3EE" stroke-width="2"/>
<circle cx="351.6" cy="213.4" r="3.5" fill="#000000" stroke="#22D3EE" stroke-width="2"/>
<circle cx="351.8" cy="207.5" r="3.5" fill="#000000" stroke="#22D3EE" stroke-width="2"/>
<circle cx="374.1" cy="203.0" r="3.5" fill="#000000" stroke="#22D3EE" stroke-width="2"/>
<circle cx="374.6" cy="203.0" r="3.5" fill="#000000" stroke="#22D3EE" stroke-width="2"/>
<circle cx="397.9" cy="197.1" r="3.5" fill="#000000" stroke="#22D3EE" stroke-width="2"/>
<circle cx="398.4" cy="194.2" r="3.5" fill="#000000" stroke="#22D3EE" stroke-width="2"/>
<circle cx="419.4" cy="155.7" r="3.5" fill="#000000" stroke="#22D3EE" stroke-width="2"/>
<circle cx="516.8" cy="132.0" r="3.5" fill="#000000" stroke="#22D3EE" stroke-width="2"/>
<circle cx="523.3" cy="98.0" r="3.5" fill="#000000" stroke="#22D3EE" stroke-width="2"/>
</svg>
