<svg xmlns="http://www.w3.org/2000/svg" width="720" height="400" viewBox="0 0 720 400" font-family="ui-sans-serif,Segoe UI,Helvetica,Arial,sans-serif">
<rect width="720" height="400" rx="12" fill="#000000"/>
<text x="58" y="34" fill="#F5F4F5" font-size="20" font-weight="700">Downloads</text>
<text x="694" y="34" fill="#22D3EE" font-size="20" font-weight="700" text-anchor="end">↓ 157</text>
<text x="58" y="386" fill="#8A8394" font-size="12">0nigiris/JII</text>
<line x1="58" y1="354.0" x2="694" y2="354.0" stroke="#FFFFFF14" stroke-width="1"/>
<text x="50" y="358.0" fill="#8A8394" font-size="11" text-anchor="end">0</text>
<line x1="58" y1="280.0" x2="694" y2="280.0" stroke="#FFFFFF14" stroke-width="1"/>
<text x="50" y="284.0" fill="#8A8394" font-size="11" text-anchor="end">50</text>
<line x1="58" y1="206.0" x2="694" y2="206.0" stroke="#FFFFFF14" stroke-width="1"/>
<text x="50" y="210.0" fill="#8A8394" font-size="11" text-anchor="end">100</text>
<line x1="58" y1="132.0" x2="694" y2="132.0" stroke="#FFFFFF14" stroke-width="1"/>
<text x="50" y="136.0" fill="#8A8394" font-size="11" text-anchor="end">150</text>
<line x1="58" y1="58.0" x2="694" y2="58.0" stroke="#FFFFFF14" stroke-width="1"/>
<text x="50" y="62.0" fill="#8A8394" font-size="11" text-anchor="end">200</text>
<text x="58.0" y="374.0" fill="#8A8394" font-size="11" text-anchor="start">Jul 9, 2026</text>
<text x="217.0" y="374.0" fill="#8A8394" font-size="11" text-anchor="middle">Jul 26, 2026</text>
<text x="376.0" y="374.0" fill="#8A8394" font-size="11" text-anchor="middle">Aug 11, 2026</text>
<text x="535.0" y="374.0" fill="#8A8394" font-size="11" text-anchor="middle">Aug 27, 2026</text>
<text x="694.0" y="374.0" fill="#8A8394" font-size="11" text-anchor="end">Sep 13, 2026</text>
<polygon points="58.0,354.0 58.0,352.5 59.3,349.6 59.8,349.6 59.9,342.2 65.9,336.2 68.9,288.9 94.8,283.0 100.0,280.0 119.3,277.0 133.9,271.1 206.6,251.9 400.3,251.9 414.6,251.9 415.3,248.9 418.7,232.6 418.7,226.7 418.8,223.8 419.0,217.8 446.4,214.9 446.9,214.9 475.7,209.0 476.3,206.0 502.0,167.5 621.7,143.8 629.7,121.6 694.0,121.6 694.0,354.0" fill="#22D3EE" fill-opacity="0.08"/>
<polyline points="58.0,352.5 59.3,349.6 59.8,349.6 59.9,342.2 65.9,336.2 68.9,288.9 94.8,283.0 100.0,280.0 119.3,277.0 133.9,271.1 206.6,251.9 400.3,251.9 414.6,251.9 415.3,248.9 418.7,232.6 418.7,226.7 418.8,223.8 419.0,217.8 446.4,214.9 446.9,214.9 475.7,209.0 476.3,206.0 502.0,167.5 621.7,143.8 629.7,121.6 694.0,121.6" fill="none" stroke="#22D3EE" stroke-width="3" stroke-linejoin="round" stroke-linecap="round"/>
<circle cx="58.0" cy="352.5" r="3.5" fill="#000000" stroke="#22D3EE" stroke-width="2"/>
<circle cx="59.3" cy="349.6" r="3.5" fill="#000000" stroke="#22D3EE" stroke-width="2"/>
<circle cx="59.8" cy="349.6" r="3.5" fill="#000000" stroke="#22D3EE" stroke-width="2"/>
<circle cx="59.9" cy="342.2" r="3.5" fill="#000000" stroke="#22D3EE" stroke-width="2"/>
<circle cx="65.9" cy="336.2" r="3.5" fill="#000000" stroke="#22D3EE" stroke-width="2"/>
<circle cx="68.9" cy="288.9" r="3.5" fill="#000000" stroke="#22D3EE" stroke-width="2"/>
<circle cx="94.8" cy="283.0" r="3.5" fill="#000000" stroke="#22D3EE" stroke-width="2"/>
<circle cx="100.0" cy="280.0" r="3.5" fill="#000000" stroke="#22D3EE" stroke-width="2"/>
<circle cx="119.3" cy="277.0" r="3.5" fill="#000000" stroke="#22D3EE" stroke-width="2"/>
<circle cx="133.9" cy="271.1" r="3.5" fill="#000000" stroke="#22D3EE" stroke-width="2"/>
<circle cx="206.6" cy="251.9" r="3.5" fill="#000000" stroke="#22D3EE" stroke-width="2"/>
<circle cx="400.3" cy="251.9" r="3.5" fill="#000000" stroke="#22D3EE" stroke-width="2"/>
<circle cx="414.6" cy="251.9" r="3.5" fill="#000000" stroke="#22D3EE" stroke-width="2"/>
<circle cx="415.3" cy="248.9" r="3.5" fill="#000000" stroke="#22D3EE" stroke-width="2"/>
<circle cx="418.7" cy="232.6" r="3.5" fill="#000000" stroke="#22D3EE" stroke-width="2"/>
<circle cx="418.7" cy="226.7" r="3.5" fill="#000000" stroke="#22D3EE" stroke-width="2"/>
<circle cx="418.8" cy="223.8" r="3.5" fill="#000000" stroke="#22D3EE" stroke-width="2"/>
<circle cx="419.0" cy="217.8" r="3.5" fill="#000000" stroke="#22D3EE" stroke-width="2"/>
<circle cx="446.4" cy="214.9" r="3.5" fill="#000000" stroke="#22D3EE" stroke-width="2"/>
<circle cx="446.9" cy="214.9" r="3.5" fill="#000000" stroke="#22D3EE" stroke-width="2"/>
<circle cx="475.7" cy="209.0" r="3.5" fill="#000000" stroke="#22D3EE" stroke-width="2"/>
<circle cx="476.3" cy="206.0" r="3.5" fill="#000000" stroke="#22D3EE" stroke-width="2"/>
<circle cx="502.0" cy="167.5" r="3.5" fill="#000000" stroke="#22D3EE" stroke-width="2"/>
<circle cx="621.7" cy="143.8" r="3.5" fill="#000000" stroke="#22D3EE" stroke-width="2"/>
<circle cx="629.7" cy="121.6" r="3.5" fill="#000000" stroke="#22D3EE" stroke-width="2"/>
</svg>
