<svg xmlns="http://www.w3.org/2000/svg" width="720" height="400" viewBox="0 0 720 400" font-family="ui-sans-serif,Segoe UI,Helvetica,Arial,sans-serif">
<rect width="720" height="400" rx="12" fill="#000000"/>
<text x="58" y="34" fill="#F5F4F5" font-size="20" font-weight="700">Downloads</text>
<text x="694" y="34" fill="#22D3EE" font-size="20" font-weight="700" text-anchor="end">↓ 181</text>
<text x="58" y="386" fill="#8A8394" font-size="12">0nigiris/JII</text>
<line x1="58" y1="354.0" x2="694" y2="354.0" stroke="#FFFFFF14" stroke-width="1"/>
<text x="50" y="358.0" fill="#8A8394" font-size="11" text-anchor="end">0</text>
<line x1="58" y1="280.0" x2="694" y2="280.0" stroke="#FFFFFF14" stroke-width="1"/>
<text x="50" y="284.0" fill="#8A8394" font-size="11" text-anchor="end">50</text>
<line x1="58" y1="206.0" x2="694" y2="206.0" stroke="#FFFFFF14" stroke-width="1"/>
<text x="50" y="210.0" fill="#8A8394" font-size="11" text-anchor="end">100</text>
<line x1="58" y1="132.0" x2="694" y2="132.0" stroke="#FFFFFF14" stroke-width="1"/>
<text x="50" y="136.0" fill="#8A8394" font-size="11" text-anchor="end">150</text>
<line x1="58" y1="58.0" x2="694" y2="58.0" stroke="#FFFFFF14" stroke-width="1"/>
<text x="50" y="62.0" fill="#8A8394" font-size="11" text-anchor="end">200</text>
<text x="58.0" y="374.0" fill="#8A8394" font-size="11" text-anchor="start">Jul 9, 2026</text>
<text x="217.0" y="374.0" fill="#8A8394" font-size="11" text-anchor="middle">Jul 30, 2026</text>
<text x="376.0" y="374.0" fill="#8A8394" font-size="11" text-anchor="middle">Aug 20, 2026</text>
<text x="535.0" y="374.0" fill="#8A8394" font-size="11" text-anchor="middle">Sep 10, 2026</text>
<text x="694.0" y="374.0" fill="#8A8394" font-size="11" text-anchor="end">Oct 1, 2026</text>
<polygon points="58.0,354.0 58.0,352.5 59.0,349.6 59.4,349.6 59.5,342.2 64.2,336.2 66.5,288.9 86.9,283.0 91.0,280.0 106.1,277.0 117.6,271.1 174.6,251.9 326.6,251.9 337.9,251.9 338.4,248.9 341.0,217.8 341.1,211.9 341.1,209.0 341.3,203.0 362.8,198.6 363.2,198.6 385.8,192.7 386.2,189.7 406.5,151.2 500.4,127.6 506.6,86.1 694.0,86.1 694.0,354.0" fill="#22D3EE" fill-opacity="0.08"/>
<polyline points="58.0,352.5 59.0,349.6 59.4,349.6 59.5,342.2 64.2,336.2 66.5,288.9 86.9,283.0 91.0,280.0 106.1,277.0 117.6,271.1 174.6,251.9 326.6,251.9 337.9,251.9 338.4,248.9 341.0,217.8 341.1,211.9 341.1,209.0 341.3,203.0 362.8,198.6 363.2,198.6 385.8,192.7 386.2,189.7 406.5,151.2 500.4,127.6 506.6,86.1 694.0,86.1" fill="none" stroke="#22D3EE" stroke-width="3" stroke-linejoin="round" stroke-linecap="round"/>
<circle cx="58.0" cy="352.5" r="3.5" fill="#000000" stroke="#22D3EE" stroke-width="2"/>
<circle cx="59.0" cy="349.6" r="3.5" fill="#000000" stroke="#22D3EE" stroke-width="2"/>
<circle cx="59.4" cy="349.6" r="3.5" fill="#000000" stroke="#22D3EE" stroke-width="2"/>
<circle cx="59.5" cy="342.2" r="3.5" fill="#000000" stroke="#22D3EE" stroke-width="2"/>
<circle cx="64.2" cy="336.2" r="3.5" fill="#000000" stroke="#22D3EE" stroke-width="2"/>
<circle cx="66.5" cy="288.9" r="3.5" fill="#000000" stroke="#22D3EE" stroke-width="2"/>
<circle cx="86.9" cy="283.0" r="3.5" fill="#000000" stroke="#22D3EE" stroke-width="2"/>
<circle cx="91.0" cy="280.0" r="3.5" fill="#000000" stroke="#22D3EE" stroke-width="2"/>
<circle cx="106.1" cy="277.0" r="3.5" fill="#000000" stroke="#22D3EE" stroke-width="2"/>
<circle cx="117.6" cy="271.1" r="3.5" fill="#000000" stroke="#22D3EE" stroke-width="2"/>
<circle cx="174.6" cy="251.9" r="3.5" fill="#000000" stroke="#22D3EE" stroke-width="2"/>
<circle cx="326.6" cy="251.9" r="3.5" fill="#000000" stroke="#22D3EE" stroke-width="2"/>
<circle cx="337.9" cy="251.9" r="3.5" fill="#000000" stroke="#22D3EE" stroke-width="2"/>
<circle cx="338.4" cy="248.9" r="3.5" fill="#000000" stroke="#22D3EE" stroke-width="2"/>
<circle cx="341.0" cy="217.8" r="3.5" fill="#000000" stroke="#22D3EE" stroke-width="2"/>
<circle cx="341.1" cy="211.9" r="3.5" fill="#000000" stroke="#22D3EE" stroke-width="2"/>
<circle cx="341.1" cy="209.0" r="3.5" fill="#000000" stroke="#22D3EE" stroke-width="2"/>
<circle cx="341.3" cy="203.0" r="3.5" fill="#000000" stroke="#22D3EE" stroke-width="2"/>
<circle cx="362.8" cy="198.6" r="3.5" fill="#000000" stroke="#22D3EE" stroke-width="2"/>
<circle cx="363.2" cy="198.6" r="3.5" fill="#000000" stroke="#22D3EE" stroke-width="2"/>
<circle cx="385.8" cy="192.7" r="3.5" fill="#000000" stroke="#22D3EE" stroke-width="2"/>
<circle cx="386.2" cy="189.7" r="3.5" fill="#000000" stroke="#22D3EE" stroke-width="2"/>
<circle cx="406.5" cy="151.2" r="3.5" fill="#000000" stroke="#22D3EE" stroke-width="2"/>
<circle cx="500.4" cy="127.6" r="3.5" fill="#000000" stroke="#22D3EE" stroke-width="2"/>
<circle cx="506.6" cy="86.1" r="3.5" fill="#000000" stroke="#22D3EE" stroke-width="2"/>
</svg>
